<svg xmlns="http://www.w3.org/2000/svg" xmlns:xlink="http://www.w3.org/1999/xlink" id="Layer_1" x="0px" y="0px" viewBox="0 0 512 512" style="enable-background:new 0 0 512 512;" xml:space="preserve"><style type="text/css">	.st0{fill:#13A09C;}</style><path class="st0" d="M464.02,16.35c0,7.73,0,7.73-7.75,7.73c-8.22,0-8.22,0-8.22-8.26c0-7.73,0-7.73,7.75-7.73 C464.02,8.09,464.02,8.09,464.02,16.35z"></path><path class="st0" d="M96.87,495.93c0,7.98,0,7.98-8,7.98c-7.97,0-7.97,0-7.97-8.01c0-7.98,0-7.98,8-7.98 C96.87,487.92,96.87,487.92,96.87,495.93z"></path><path class="st0" d="M420.67,155.98c-3.81-1-4.66-2.58-4.64-6.33c0.17-33.15,0.12-66.29,0.09-99.44 C416.1,25.23,399.1,8.11,374.27,8.1c-67.83-0.02-135.65-0.02-203.48,0c-24.92,0.01-41.97,17.05-41.99,41.96 c-0.03,27.32-0.06,54.63,0.07,81.95c0.01,3.2-0.72,4.18-4.04,4.12c-12.63-0.21-25.27,0.01-37.9-0.15c-3.12-0.04-4.73,0.53-5.32,4.04 c-0.84,5.05-2.46,9.96-3.83,15.26c-4.83-2.89-9.43-5.5-13.87-8.37c-2.11-1.36-3.46-1.59-5.45,0.44 c-12.59,12.82-25.3,25.54-38.09,38.15c-1.99,1.96-1.85,3.29-0.46,5.44c2.89,4.44,5.47,9.07,8.36,13.95 c-5.43,1.4-10.51,2.9-15.69,3.97c-2.55,0.53-3.6,1.36-3.58,4.16c0.13,17.99,0.13,35.98,0,53.97c-0.02,2.8,1.02,3.64,3.57,4.17 c5.17,1.07,10.26,2.56,15.71,3.96c-2.9,4.87-5.5,9.49-8.36,13.94c-1.35,2.1-1.63,3.43,0.41,5.44c12.81,12.61,25.5,25.33,38.1,38.15 c1.94,1.98,3.28,1.9,5.43,0.49c4.42-2.9,9.05-5.49,13.9-8.4c1.4,5.46,2.98,10.54,3.95,15.75c0.56,3.05,1.94,3.58,4.7,3.55 c12.63-0.13,25.27,0.11,37.9-0.16c3.77-0.08,4.59,0.93,4.57,4.62c-0.15,37.81-0.11,75.62-0.09,113.43 c0.02,24.91,17.08,41.97,41.98,41.98c67.83,0.02,135.65,0.02,203.48,0c24.82-0.01,41.84-17.15,41.86-42.11 c0.03-27.98,0.06-55.97-0.07-83.95c-0.02-3.29,0.63-4.78,4.14-5.7c49.4-12.9,83.65-57.15,83.73-107.9 C504,213.39,469.89,168.91,420.67,155.98z M128.84,324.6c0.03,2.4-0.32,3.51-3.17,3.45c-9.14-0.2-18.29-0.17-27.43-0.01 c-2.47,0.04-3.48-0.77-3.93-3.13c-0.69-3.59-1.78-7.09-2.52-10.67c-0.87-4.2-2.88-6.96-7.26-8.41c-3.01-0.99-5.16-0.82-7.83,0.75 c-4.49,2.65-8.98,8.08-13.54,7.09c-4.26-0.92-7.5-6.62-11.16-10.24c-2.84-2.81-5.65-5.65-8.47-8.48c-5.33-5.34-5.33-5.34-1.33-11.98 c0.94-1.57,1.64-3.36,2.87-4.65c4.47-4.71,2.64-9.3,0.19-14.05c-0.59-1.15-1.25-1.9-2.48-2.15c-0.49-0.1-0.99-0.14-1.47-0.27 c-5.3-1.37-12.5-1.13-15.38-4.55c-3.12-3.71-0.74-10.85-0.87-16.49c-0.11-5,0.22-10.01-0.11-14.99c-0.2-3.03,1-4.07,3.66-4.57 c3.09-0.59,6.11-2,9.19-2.11c6.52-0.24,8.4-4.76,10.08-9.75c0.39-1.16,0.49-2.25-0.21-3.33c-0.36-0.56-0.7-1.13-1.02-1.71 c-2.59-4.75-8.28-9.5-7.34-14.02c0.94-4.53,6.99-8.01,10.83-11.92c3.73-3.8,7.56-7.51,11.24-11.35c1.37-1.43,2.45-1.65,4.19-0.5 c3.88,2.55,7.9,4.89,11.91,7.24c4.68,2.74,12.22-0.52,13.61-5.83c0.46-1.77,0.96-3.53,1.41-5.3c2.73-10.64,2.73-10.64,13.89-10.64 c6.48,0,12.97,0.05,19.45-0.03c1.91-0.02,3.03,0.14,3,2.59c-0.13,10.47-0.05,20.94-0.05,31.8c-14.44-4.07-28.02-2.82-41.06,3.65 c-20.8,10.34-33.79,34.53-30.39,56.52c4,25.87,22.16,44.7,46.58,48.61c7.19,1.15,14.26,1.04,21.24-0.77 c2.83-0.73,3.75-0.48,3.69,2.69C128.68,306.27,128.73,315.44,128.84,324.6z M128.8,240.24c0,11-0.09,21.99,0.07,32.98 c0.04,2.59-0.78,3.79-3.19,4.64c-16.07,5.64-34.54-0.12-44.86-14.13c-10.61-14.39-10.51-33.56,0.25-47.86 c10.29-13.68,28.8-19.32,44.57-13.71c2.35,0.84,3.27,1.96,3.23,4.6C128.7,217.91,128.8,229.08,128.8,240.24z M144.66,67.31 c0.35-6.31,0.03-12.66,0.11-18.99c0.17-13.67,10.38-24.19,23.93-24.2c69.17-0.08,138.34-0.08,207.5,0 c13.56,0.02,23.76,10.51,23.94,24.2c0.09,6.5-0.21,13,0.1,19.49c0.17,3.52-0.83,4.36-4.33,4.35c-41.23-0.14-82.47-0.09-123.7-0.09 c-40.9,0-81.8-0.06-122.71,0.09C145.63,72.18,144.44,71.25,144.66,67.31z M400.26,444.68c-0.36,6.31-0.03,12.66-0.11,18.99 c-0.18,13.67-10.39,24.2-23.93,24.21c-69.17,0.08-138.33,0.08-207.5,0c-13.56-0.02-23.78-10.54-23.95-24.2 c-0.08-6.5,0.21-13-0.1-19.49c-0.17-3.52,0.83-4.36,4.33-4.35c41.23,0.14,82.47,0.09,123.7,0.09c40.9,0,81.8,0.06,122.7-0.09 C399.26,439.83,400.49,440.72,400.26,444.68z M400.13,388.96c0.1,10.16-0.16,20.33,0.13,30.48c0.11,3.76-0.9,4.6-4.6,4.59 c-78.48-0.12-156.96-0.09-235.43-0.09c-3.82,0-7.67-0.23-11.47,0.07c-3.27,0.25-4.1-0.81-4.08-4.07 c0.14-27.15,0.08-54.31,0.08-81.46c0-27.49,0-54.98,0-82.46c0-54.31,0.05-108.62-0.1-162.93c-0.01-4.12,0.91-5.13,5.08-5.13 c81.8,0.14,163.61,0.14,245.41,0c4.1-0.01,5.19,0.88,5.13,5.08c-0.26,18.32-0.21,36.65-0.03,54.97c0.04,3.49-0.8,4.59-4.33,4.18 c-3.73-0.43-8.96,1.27-10.95-0.66c-2.43-2.34-0.71-7.54-0.74-11.5c-0.1-10.83-0.13-21.66,0.03-32.48c0.04-2.83-0.76-3.57-3.57-3.56 c-72.16,0.08-144.32,0.11-216.48-0.05c-4.23-0.01-3.5,2.19-3.5,4.62c0,58.81,0,117.61,0,176.42c0,39.48,0.06,78.96-0.09,118.45 c-0.01,3.7,0.82,4.62,4.57,4.62c71.49-0.13,142.99-0.13,214.48-0.01c3.68,0.01,4.77-0.78,4.62-4.58c-0.33-8.15,0-16.32-0.16-24.48 c-0.05-2.6,0.6-3.43,3.3-3.2c4.08,0.35,9.76-1.38,11.91,0.71C401.96,379.02,400.09,384.66,400.13,388.96z M368.29,151.52 c0.03,2.35-0.45,3.76-3.08,3.89c-1.13,0.06-2.25,0.54-3.36,0.87c-3,0.88-7.51,3.42-8.67,2.34c-2.34-2.18-0.63-6.45-0.89-9.85 c-0.31-4.11,1.74-9.5-0.77-11.99c-2.5-2.48-7.88-0.7-11.98-0.71c-47.38-0.05-94.75,0.02-142.13-0.12c-3.85-0.01-4.88,0.89-4.86,4.83 c0.17,34.14,0.16,68.29,0.01,102.43c-0.02,3.82,0.83,4.92,4.8,4.89c26.6-0.2,53.19-0.01,79.79-0.21c3.89-0.03,4.61,0.94,4.19,4.66 c-6.17,54.03,28.62,104.96,81.62,119.27c4.44,1.2,5.86,2.89,5.36,7.27c-0.47,4.09,1.25,9.52-0.81,12.03 c-2.18,2.65-7.78,0.79-11.87,0.79c-57.85,0.06-115.7-0.03-173.55,0.16c-4.71,0.02-5.52-1.38-5.5-5.72 c0.16-43.47,0.1-86.94,0.1-130.41c0-43.64,0.07-87.28-0.11-130.91c-0.02-4.2,1.03-5.09,5.13-5.08c60.51,0.15,121.02,0.15,181.53,0 c4.11-0.01,5.3,0.88,5.12,5.09C367.98,133.85,368.17,142.69,368.29,151.52z M208.53,156.02c-0.02-3.3,0.89-4.08,4.1-4.05 c19.94,0.15,39.87,0.08,59.81,0.08c19.94,0,39.87,0.07,59.81-0.07c3.12-0.02,3.92,0.68,4.23,3.98c0.7,7.59-1.47,12.29-8.33,16.86 c-20.23,13.45-33.95,32.41-41.71,55.52c-0.92,2.73-2.08,3.78-5.12,3.76c-22.93-0.15-45.85-0.16-68.78,0c-3.4,0.03-4-1.06-3.98-4.17 C208.66,203.96,208.68,179.99,208.53,156.02z M461.89,329.67c-37.4,40.15-101.26,40.28-139.08,0.37c-3.93-4.14-2.75-8.78-2.02-13.06 c1.69-9.83,7.6-16.51,17.37-19.1c14.09-3.73,28.23-7.29,42.41-10.68c2.82-0.67,3.98-1.67,3.68-4.59c-0.24-2.31-0.18-4.67-0.02-6.99 c0.5-7.39,0.56-14.1-7.83-18.11c-4.27-2.04-6.6-7.03-7.35-11.97c-1.37-9.08-1.83-18.29,0.31-27.25c2.84-11.91,14.18-19.6,25.7-18.14 c12.02,1.53,20.83,11.55,21.05,23.98c0.05,2.66,0.01,5.33,0.01,7.99c0,2.16-0.03,4.33,0.01,6.49c0.14,9.86-4.02,17.37-12.54,22.22 c-2.68,1.53-3.65,3.24-3.5,6.28c0.26,5.31,0.19,10.65,0.02,15.98c-0.08,2.47,0.75,3.39,3.18,3.97c13.38,3.19,26.71,6.6,40.05,9.95 c14.26,3.58,20.81,12.18,20.72,26.91C464.05,326.22,463.5,327.94,461.89,329.67z M441.49,279.97c-7.63-1.52-15.11-3.78-22.68-5.61 c-2.47-0.59-4.08-1.34-1.35-3.63c11.7-9.83,15.42-22.72,14.68-37.47c-0.33-6.63,0.35-13.3-1.51-19.83 c-5.35-18.79-23.12-31.16-42.22-29.28c-19.18,1.89-35,18.62-35.96,38.57c-0.38,7.95-0.79,15.96,0.53,23.91 c1.53,9.22,5.96,16.8,12.76,23.09c1.04,0.96,3,1.61,2.33,3.41c-0.57,1.53-2.52,1.31-3.87,1.66c-9.14,2.37-18.33,4.57-27.48,6.91 c-14.9,3.8-22.14,9.86-29.76,24.75c-17.34-30.57-15.14-80.2,20.61-113.27c34.24-31.67,86.91-33.68,123.83-4.51 c37.5,29.62,45.9,80.24,26.01,118.32C470.86,290.32,457.69,283.2,441.49,279.97z"></path><path class="st0" d="M467.04,107.05c-2.52-1.31-3.11-2.76-3.07-5.33c0.13-9.49,0.05-18.98,0.05-28.48c0-7.16,0-14.32,0-21.48 c0-11.78,0-11.61-11.79-11.78c-3.61-0.05-4.29,1.04-4.26,4.43c0.17,18.98,0.05,37.97,0.12,56.96c0.01,2.66-0.36,4.32-3.17,5.78 c-10.23,5.32-14.81,16.09-11.99,26.88c2.81,10.77,12.39,18.14,23.42,18.02c10.8-0.12,20.06-7.49,22.81-18.15 C481.94,123.12,477.26,112.38,467.04,107.05z M455.92,136.03c-4.47-0.07-8.12-4.02-7.84-8.47c0.27-4.28,4.06-7.7,8.31-7.5 c4.27,0.2,7.73,3.95,7.6,8.22C463.86,132.56,460.18,136.09,455.92,136.03z"></path><path class="st0" d="M228.56,264c10.81,0,21.61,0.1,32.41-0.07c2.81-0.04,3.55,0.74,3.58,3.56c0.14,12.5,0.24,12.5-12.05,12.5 c-18.62,0-37.24-0.08-55.85,0.08c-3.24,0.03-4.11-0.81-4.09-4.08c0.08-11.99-0.06-12,12.06-12C212.6,264,220.58,264,228.56,264z"></path><path class="st0" d="M229.05,295.99c10.64,0,21.28,0.1,31.92-0.06c2.79-0.04,3.56,0.7,3.6,3.55c0.14,12.51,0.25,12.51-12.04,12.51 c-18.62,0-37.24-0.08-55.85,0.08c-3.22,0.03-4.13-0.76-4.1-4.06c0.08-12.01-0.06-12.01,12.05-12.01 C212.76,295.99,220.9,295.99,229.05,295.99z"></path><path class="st0" d="M228.06,343.97c-10.64,0-21.28-0.1-31.92,0.07c-2.82,0.04-3.54-0.75-3.58-3.57 c-0.14-12.49-0.24-12.49,12.06-12.49c18.62,0,37.24,0.08,55.85-0.08c3.25-0.03,4.1,0.82,4.08,4.08 c-0.08,11.99,0.06,11.99-12.07,11.99C244.35,343.97,236.21,343.97,228.06,343.97z"></path><path class="st0" d="M228.57,375.96c-10.81,0-21.61-0.1-32.41,0.07c-2.81,0.04-3.55-0.73-3.58-3.56c-0.14-12.5-0.24-12.5,12.05-12.5 c18.62,0,37.24,0.08,55.85-0.08c3.24-0.03,4.11,0.8,4.09,4.07c-0.08,12,0.06,12-12.06,12C244.53,375.96,236.55,375.96,228.57,375.96 z"></path><path class="st0" d="M256.43,56.07c-9.31,0-18.62-0.09-27.93,0.05c-2.74,0.04-4.03-0.22-4.04-3.62 c-0.02-12.43-0.18-12.43,12.15-12.43c15.79,0,31.59,0.15,47.37-0.11c3.87-0.06,4.59,1.07,4.52,4.68 c-0.2,11.42-0.05,11.42-11.64,11.42C270.06,56.07,263.25,56.07,256.43,56.07z"></path><path class="st0" d="M304.39,47.75c0-7.67,0-7.67,7.81-7.67c8.15,0,8.15,0,8.15,8.33c0,7.67,0,7.67-7.81,7.67 C304.39,56.07,304.39,56.07,304.39,47.75z"></path><path class="st0" d="M272.46,455.93c9.47,0,18.95,0.11,28.42-0.07c2.81-0.05,3.55,0.74,3.58,3.56c0.14,12.5,0.24,12.5-12.05,12.5 c-15.96,0-31.92-0.09-47.87,0.08c-3.24,0.04-4.11-0.8-4.09-4.08c0.08-12-0.06-12,12.06-12 C259.16,455.93,265.81,455.93,272.46,455.93z"></path><path class="st0" d="M176.68,463.5c0-7.57,0-7.57,7.41-7.57c8.55,0,8.55,0,8.55,8.42c0,7.57,0,7.57-7.41,7.57 C176.68,471.92,176.68,471.92,176.68,463.5z"></path><path class="st0" d="M360.68,471.92c-8.41,0-8.41,0-8.41-8.57c0-7.42,0-7.42,7.56-7.42c8.41,0,8.41,0,8.41,8.57 C368.24,471.92,368.24,471.92,360.68,471.92z"></path><path class="st0" d="M112.04,378.21c-2.77-10.88-12.19-18.27-23.23-18.24c-11.02,0.03-20.38,7.48-23.12,18.39 c-2.64,10.53,2.04,21.31,11.99,26.45c2.74,1.41,3.32,2.99,3.28,5.72c-0.13,9.49-0.05,18.99-0.05,28.48c0,7,0,13.99,0,20.99 c0,12.09,0,11.94,12.04,12.02c3.41,0.02,4.01-1.07,3.99-4.18c-0.14-18.99-0.01-37.97-0.13-56.96c-0.02-2.91,0.52-4.6,3.43-6.12 C110.12,399.61,114.73,388.74,112.04,378.21z M89.08,391.93c-4.46,0.12-8.26-3.68-8.16-8.16c0.1-4.29,3.74-7.84,8.02-7.81 c4.27,0.03,7.87,3.63,7.91,7.91C96.89,388.16,93.36,391.82,89.08,391.93z"></path></svg>