<svg xmlns="http://www.w3.org/2000/svg" xmlns:xlink="http://www.w3.org/1999/xlink" id="Layer_1" x="0px" y="0px" viewBox="0 0 512 512" style="enable-background:new 0 0 512 512;" xml:space="preserve"><style type="text/css">	.st0{fill:#13A09C;}</style><path class="st0" d="M363.11,77.01c6.3,0.09,11.02,1.98,14.82,5.75c16.78,16.63,33.61,33.23,50.17,50.08 c8.15,8.3,8.08,20.51-0.07,28.74c-25.39,25.67-50.94,51.2-76.46,76.74c-3.46,3.46-7.23,3.59-10.02,0.66 c-2.86-3-2.61-6.43,0.98-10.09c6.06-6.18,12.13-12.35,18.37-18.34c2.04-1.96,2.21-3.18,0.01-5.05c-2.53-2.15-4.8-4.61-7.12-6.99 c-3.69-3.79-4.02-7.58-1-10.47c2.94-2.82,6.38-2.51,10.05,1.01c2.64,2.53,5.28,5.07,7.77,7.76c1.48,1.6,2.45,1.55,3.97-0.01 c6.97-7.15,13.99-14.25,21.14-21.22c1.8-1.75,1.61-2.74-0.06-4.36c-5.73-5.57-11.34-11.25-16.95-16.93 c-4.03-4.08-4.45-7.82-1.31-10.81c2.84-2.71,6.77-2.19,10.47,1.48c5.56,5.5,11.14,10.99,16.55,16.63c1.81,1.89,2.99,2.57,5.02,0.24 c2.73-3.13,5.91-5.86,8.74-8.9c3.5-3.76,3.7-7.5,0.19-11.04c-16.27-16.44-32.61-32.81-49.04-49.09c-4.1-4.06-7.64-3.55-12.42,1.24 c-24.32,24.39-48.63,48.8-72.95,73.2c-1.17,1.18-2.28,2.5-3.66,3.36c-2.88,1.79-5.81,1.49-8.16-0.98c-2.34-2.46-2.47-5.36-0.62-8.21 c0.62-0.96,1.52-1.76,2.34-2.58c24.89-25,49.8-49.98,74.67-75.01C352.82,79.46,357.85,77,363.11,77.01z"></path><path class="st0" d="M145.84,434.96c-4.33-0.14-9.02-2.02-12.83-5.82c-16.62-16.57-33.28-33.09-49.74-49.8 c-8.6-8.72-8.46-20.71,0.19-29.42c25.09-25.28,50.26-50.46,75.42-75.66c3.83-3.83,7.44-4.32,10.41-1.55 c3.24,3.02,2.92,6.72-1.14,10.81c-24.41,24.53-48.86,49.03-73.3,73.55c-6.24,6.26-6.24,9.08-0.03,15.31 c15.17,15.19,30.34,30.38,45.53,45.55c5.38,5.37,8.49,5.38,13.84,0.02c3.17-3.17,8.41-6.2,8.78-9.71c0.39-3.67-5.46-6.44-8.46-9.71 c-3.46-3.76-3.92-7.71-1.02-10.49c2.94-2.82,6.39-2.51,10.08,1.01c2.65,2.53,5.29,5.07,7.76,7.77c1.48,1.62,2.44,1.56,3.96,0.01 c7.09-7.26,14.23-14.48,21.49-21.57c1.76-1.72,1.01-2.61-0.29-3.89c-5.81-5.72-11.6-11.46-17.33-17.26 c-3.76-3.81-4.09-7.52-1.09-10.46c2.86-2.8,6.72-2.36,10.46,1.32c5.69,5.61,11.4,11.2,16.93,16.95c1.82,1.89,2.87,1.84,4.66-0.03 c6-6.24,12.15-12.32,18.3-18.41c3.72-3.68,7.55-3.98,10.45-0.97c2.72,2.84,2.43,6.56-1.07,10.09c-25.2,25.39-50.43,50.76-75.68,76.1 C157.93,432.87,152.86,435.06,145.84,434.96z"></path><path class="st0" d="M338.81,34.91c4.81,0,9.62-0.09,14.43,0.03c4.58,0.12,7.14,2.59,7.1,6.56c-0.04,3.89-2.7,6.46-7.22,6.51 c-9.79,0.11-19.57,0.05-29.36,0.02c-4.27-0.01-6.99-2.04-7.35-6.42c-0.33-3.99,2.64-6.6,7.47-6.69 C328.86,34.83,333.84,34.9,338.81,34.91z"></path><path class="st0" d="M172.69,477.11c-4.98,0-9.96,0.1-14.93-0.03c-4.58-0.12-7.13-2.6-7.09-6.57c0.04-3.91,2.67-6.46,7.21-6.51 c9.79-0.1,19.57-0.05,29.36-0.02c4.27,0.01,7,2.03,7.36,6.41c0.32,3.99-2.66,6.6-7.48,6.7C182.31,477.18,177.5,477.11,172.69,477.11 z"></path><path class="st0" d="M172.61,48.04c-4.81,0-9.63,0.08-14.44-0.02c-4.91-0.1-7.69-2.57-7.48-6.7c0.23-4.5,2.94-6.42,7.24-6.42 c9.79,0,19.58-0.06,29.37,0.03c4.57,0.04,7.27,2.54,7.33,6.37c0.07,3.95-2.86,6.62-7.59,6.71 C182.24,48.11,177.42,48.04,172.61,48.04z"></path><path class="st0" d="M228.23,34.91c4.81,0,9.62-0.1,14.43,0.02c4.6,0.11,7.15,2.54,7.14,6.51c-0.01,3.92-2.64,6.52-7.15,6.57 c-9.95,0.11-19.9,0.12-29.85-0.01c-4.21-0.05-7.34-3.16-6.96-6.82c0.42-4.02,2.8-6.25,6.96-6.26 C217.95,34.9,223.09,34.91,228.23,34.91z"></path><path class="st0" d="M49.81,394.48c0,4.65,0.06,9.31-0.02,13.96c-0.09,5.14-2.68,8.22-6.72,8.18c-3.91-0.04-6.39-2.9-6.44-7.85 c-0.09-9.47-0.09-18.95,0-28.42c0.05-5.04,2.39-7.79,6.37-7.87c4.14-0.09,6.7,2.86,6.8,8.04C49.88,385.17,49.81,389.83,49.81,394.48 z"></path><path class="st0" d="M461.21,393.97c0-4.65-0.1-9.31,0.03-13.96c0.13-4.79,2.81-7.77,6.78-7.5c4.45,0.3,6.37,3.1,6.38,7.35 c0.03,9.81,0.03,19.61-0.01,29.42c-0.01,4.3-2.1,7-6.47,7.29c-3.88,0.26-6.58-2.89-6.69-7.64 C461.12,403.94,461.21,398.96,461.21,393.97z"></path><path class="st0" d="M474.39,117.52c0,4.99,0.13,9.98-0.04,14.96c-0.15,4.49-2.85,7.29-6.66,7.03c-4.15-0.27-6.37-2.83-6.43-6.84 c-0.14-10.14-0.15-20.28,0-30.41c0.06-4.04,2.42-6.51,6.49-6.82c3.72-0.28,6.45,2.66,6.6,7.13 C474.52,107.54,474.39,112.53,474.39,117.52z"></path><path class="st0" d="M49.81,117.47c0,4.65,0.07,9.31-0.02,13.96c-0.09,5.2-2.62,8.16-6.74,8.11c-3.98-0.06-6.37-2.81-6.42-7.82 c-0.09-9.47-0.09-18.94,0-28.42c0.05-4.96,2.49-7.83,6.38-7.9c4.05-0.08,6.69,3,6.78,8.12C49.88,108.16,49.81,112.82,49.81,117.47z"></path><path class="st0" d="M227.58,477.12c-4.64,0-9.29,0.06-13.93-0.02c-4.85-0.08-7.8-2.55-7.86-6.42c-0.06-3.84,3.02-6.64,7.66-6.68 c9.62-0.08,19.24-0.08,28.86,0c4.84,0.04,7.67,2.62,7.45,6.72c-0.24,4.5-2.97,6.39-7.26,6.39 C237.53,477.12,232.56,477.11,227.58,477.12z"></path><path class="st0" d="M282.82,477.11c-4.81,0.01-9.62,0.1-14.43-0.02c-4.62-0.11-7.16-2.5-7.18-6.47c-0.02-3.93,2.6-6.55,7.1-6.6 c9.95-0.11,19.9-0.11,29.85,0.01c4.23,0.05,7.37,3.11,7,6.76c-0.4,4.01-2.76,6.28-6.92,6.31 C293.1,477.13,287.96,477.1,282.82,477.11z"></path><path class="st0" d="M338.2,477.11c-4.81,0-9.62,0.08-14.43-0.03c-4.51-0.1-7.28-2.6-7.35-6.38c-0.07-3.74,2.79-6.64,7.1-6.69 c9.95-0.12,19.9-0.12,29.86,0c4.48,0.05,7.08,2.73,7.01,6.68c-0.06,3.97-2.58,6.29-7.26,6.39 C348.16,477.2,343.18,477.11,338.2,477.11z"></path><path class="st0" d="M283.44,34.91c4.81-0.01,9.62-0.09,14.43,0.02c4.42,0.1,7.3,2.71,7.35,6.41c0.05,3.68-2.91,6.61-7.19,6.65 c-9.95,0.11-19.9,0.12-29.85-0.01c-4.45-0.06-7.14-2.78-6.94-6.73c0.22-4.2,2.66-6.28,6.78-6.33 C273.16,34.87,278.3,34.92,283.44,34.91z"></path><path class="st0" d="M117.47,34.91c4.98,0.01,9.95-0.02,14.93,0.01c4.17,0.03,6.53,2.25,6.85,6.33c0.3,3.79-2.64,6.68-6.98,6.74 c-9.95,0.12-19.9,0.12-29.85,0.01c-4.33-0.05-7.23-2.91-7.2-6.63c0.03-3.72,2.9-6.34,7.33-6.44 C107.51,34.82,112.49,34.91,117.47,34.91z"></path><path class="st0" d="M36.61,228.01c0-4.82-0.01-9.64,0.01-14.46c0.02-4.32,2.11-6.98,6.45-7.31c3.67-0.28,6.62,2.79,6.69,7.14 c0.15,9.97,0.16,19.94-0.01,29.91c-0.07,4.5-2.84,7.16-6.75,6.97c-4.54-0.22-6.33-3.08-6.38-7.29 C36.56,237.98,36.61,232.99,36.61,228.01z"></path><path class="st0" d="M474.39,228.41c0,4.99,0.09,9.97-0.02,14.95c-0.09,4.02-2.01,6.65-6.25,6.9c-3.93,0.23-6.77-2.41-6.84-6.87 c-0.17-10.13-0.17-20.27,0.01-30.41c0.07-4.02,2.49-6.69,6.56-6.69c4.05,0,6.41,2.55,6.52,6.66 C474.49,218.1,474.39,223.25,474.39,228.41z"></path><path class="st0" d="M49.81,283.88c0,4.82,0.11,9.64-0.03,14.46c-0.14,4.63-3.09,7.85-6.91,7.43c-4.33-0.47-6.27-3.23-6.26-7.52 c0.02-9.64-0.07-19.28,0.03-28.91c0.05-5.01,2.48-7.65,6.57-7.61c4.05,0.04,6.47,2.76,6.59,7.7 C49.9,274.24,49.81,279.06,49.81,283.88z"></path><path class="st0" d="M474.4,283.61c-0.01,4.99,0.11,9.97-0.04,14.95c-0.13,4.44-2.84,7.28-6.53,7.26c-3.68-0.02-6.52-2.93-6.58-7.3 c-0.14-9.8-0.14-19.61-0.01-29.41c0.06-4.82,2.78-7.61,6.87-7.35c4.55,0.28,6.24,3.22,6.28,7.4 C474.44,273.97,474.41,278.79,474.4,283.61z"></path><path class="st0" d="M474.4,173.07c0,4.82,0.02,9.64-0.01,14.46c-0.02,4.23-1.85,7.08-6.29,7.45c-3.9,0.32-6.8-2.75-6.86-7.44 c-0.12-9.8-0.12-19.61,0-29.42c0.05-4.17,2.09-6.99,6.6-7.14c3.92-0.13,6.38,2.48,6.52,7.13C474.52,163.1,474.4,168.09,474.4,173.07 z"></path><path class="st0" d="M393.72,48.04c-4.81,0-9.62,0.07-14.43-0.02c-4.72-0.09-7.64-2.76-7.57-6.72c0.06-3.77,2.84-6.33,7.34-6.37 c9.78-0.09,19.57-0.09,29.35,0c4.44,0.04,7.31,2.67,7.38,6.39c0.07,3.89-2.94,6.61-7.64,6.7C403.34,48.11,398.53,48.04,393.72,48.04 z"></path><path class="st0" d="M36.61,338.96c0-4.82-0.01-9.64,0.01-14.46c0.01-4.26,1.92-7.05,6.33-7.41c3.88-0.32,6.77,2.78,6.83,7.48 c0.12,9.64,0.12,19.28,0.01,28.92c-0.06,4.9-2.6,7.62-6.65,7.62c-4.1-0.01-6.38-2.6-6.5-7.69C36.52,348.61,36.6,343.78,36.61,338.96 z"></path><path class="st0" d="M474.4,339c0,4.99,0.08,9.97-0.02,14.96c-0.08,4.21-1.97,7.12-6.53,7.11c-4.52-0.01-6.55-2.93-6.6-7.1 c-0.13-9.97-0.15-19.95,0.02-29.91c0.07-4.33,3.11-7.27,6.83-6.96c4.13,0.34,6.2,2.89,6.28,6.95 C474.47,329.02,474.4,334.01,474.4,339z"></path><path class="st0" d="M36.61,172.74c0-4.82-0.05-9.64,0.02-14.46c0.06-4.19,1.82-7.09,6.38-7.29c4.06-0.18,6.71,2.64,6.77,7.48 c0.12,9.64,0.11,19.28,0,28.92c-0.05,4.74-2.82,7.69-6.72,7.63c-3.96-0.05-6.33-2.83-6.43-7.83 C36.53,182.38,36.61,177.56,36.61,172.74z"></path><path class="st0" d="M116.81,477.11c-4.81-0.01-9.62,0.09-14.43-0.03c-4.35-0.11-7.25-2.89-7.18-6.59c0.06-3.71,2.98-6.43,7.36-6.48 c9.78-0.1,19.57-0.09,29.35,0c4.46,0.04,7.28,2.64,7.38,6.41c0.1,3.93-2.81,6.59-7.56,6.68 C126.77,477.19,121.79,477.12,116.81,477.11z"></path><path class="st0" d="M393.41,477.1c-4.81,0.01-9.62,0.09-14.43-0.02c-4.45-0.1-7.24-2.68-7.27-6.46c-0.03-3.79,2.78-6.56,7.16-6.61 c9.95-0.11,19.9-0.11,29.85,0.01c4.28,0.05,7.37,3.05,7.01,6.74c-0.4,4-2.71,6.31-6.9,6.33C403.69,477.11,398.55,477.1,393.41,477.1 z"></path><path class="st0" d="M424.96,347.01c-71.83-71.97-143.66-143.94-215.46-215.93c-1.93-1.93-4.04-3.28-6.67-4.12 c-32.23-10.2-64.43-20.47-96.64-30.71c-3.17-1.01-6.37-2.19-9.32,0.69c-3.09,3.02-2.02,6.33-0.94,9.73 c10.1,31.8,20.2,63.6,30.23,95.42c1.13,3.6,3.02,6.49,5.69,9.15c29.46,29.37,58.85,58.82,88.25,88.26 c41.98,42.04,83.95,84.09,125.93,126.13c5.05,5.06,7.93,5.42,12.21,1.14c22.61-22.58,45.15-45.22,67.74-67.82 c1.6-1.6,2.63-3.4,2.68-5.66C428.59,350.49,426.73,348.79,424.96,347.01z M111.41,111.74c26.72,8.48,52.6,16.69,78.21,24.82 c-17.89,17.92-35.53,35.59-53.39,53.49C128.1,164.39,119.88,138.47,111.41,111.74z M311.43,372.25 c-55.09-55.26-110.25-110.46-165.5-165.56c-2.67-2.67-2.53-3.85,0.06-6.41c18.09-17.9,36-36,53.97-54.03 c0.93-0.93,1.92-1.79,3.03-2.81c1.18,1.11,2.27,2.09,3.3,3.12c35.53,35.53,71.05,71.07,106.56,106.61 c19.52,19.54,38.98,39.14,58.63,58.54c2.69,2.66,2.59,3.91-0.04,6.51c-18.1,17.9-36.07,35.93-53.91,54.09 C315.03,374.86,313.84,374.67,311.43,372.25z M410.85,355.43c-18.76,18.62-37.42,37.35-56.12,56.05c-0.58,0.58-1.22,1.11-1.95,1.78 c-0.7-0.59-1.36-1.06-1.93-1.63c-8.35-8.35-16.65-16.74-25.05-25.03c-1.49-1.47-1.68-2.35-0.08-3.94 c18.83-18.79,37.61-37.63,56.34-56.53c1.71-1.72,2.63-1.1,3.98,0.26c8.19,8.27,16.4,16.52,24.67,24.71 C412.26,352.63,412.7,353.59,410.85,355.43z"></path><path class="st0" d="M76.72,16.06c-0.02-5.86-2.33-8.12-8.19-8.13c-16.94-0.05-33.87-0.05-50.81,0c-5.77,0.02-7.97,2.08-8,7.71 c-0.09,17.14-0.08,34.28,0,51.41c0.03,5.79,2.37,7.93,8.33,7.97c8.3,0.05,16.6,0.01,24.91,0.01c8.47,0,16.94,0.04,25.4-0.01 c5.85-0.04,8.33-2.33,8.36-8.04C76.79,50,76.79,33.03,76.72,16.06z M63.58,58.54c0.02,2.58-0.76,3.49-3.4,3.41 c-5.64-0.18-11.28-0.05-16.92-0.05c-5.64,0-11.28-0.1-16.92,0.05c-2.45,0.06-3.55-0.42-3.52-3.22c0.14-11.64,0.11-23.27,0.01-34.91 c-0.02-2.2,0.66-2.81,2.82-2.8c11.61,0.09,23.23,0.1,34.84-0.01c2.41-0.02,3.11,0.74,3.09,3.12C63.47,35.59,63.47,47.07,63.58,58.54 z"></path><path class="st0" d="M501.31,15.78c-0.03-5.69-2.22-7.82-7.88-7.84c-17.1-0.06-34.2-0.07-51.31,0c-5.51,0.02-7.8,2.35-7.82,7.99 c-0.07,16.97-0.07,33.94,0,50.91c0.02,5.8,2.43,8.14,8.22,8.18c8.47,0.06,16.94,0.02,25.4,0.02s16.94,0.05,25.4-0.02 c5.59-0.05,7.94-2.26,7.97-7.83C501.39,50.05,501.39,32.91,501.31,15.78z M484.58,61.95c-11.11-0.16-22.23-0.19-33.34,0.02 c-3.25,0.06-3.91-1.12-3.81-4.03c0.19-5.48,0.05-10.97,0.05-16.46c0-5.49,0.13-10.98-0.05-16.46c-0.1-2.82,0.35-4.13,3.69-4.07 c11.28,0.22,22.56,0.18,33.84,0.02c2.74-0.04,3.25,0.91,3.23,3.41c-0.12,11.3-0.14,22.61,0.01,33.91 C488.23,61.12,487.44,61.99,484.58,61.95z"></path><path class="st0" d="M501.3,444.86c-0.03-5.59-2.36-7.84-7.93-7.86c-16.94-0.05-33.87-0.05-50.81,0c-5.81,0.02-8.24,2.35-8.26,8.13 c-0.07,16.97-0.07,33.94,0,50.91c0.02,5.8,2.36,8,8.28,8.05c8.3,0.06,16.6,0.02,24.91,0.02c8.63,0,17.27,0.06,25.9-0.02 c5.67-0.05,7.89-2.15,7.92-7.81C501.39,479.14,501.39,462,501.3,444.86z M488.18,488.21c0.02,2.19-0.65,2.85-2.81,2.8 c-5.8-0.13-11.61-0.04-17.42-0.04c-5.81,0-11.62-0.1-17.42,0.05c-2.41,0.06-3.12-0.73-3.1-3.12c0.11-11.47,0.11-22.94,0-34.41 c-0.02-2.57,0.75-3.44,3.39-3.41c11.28,0.13,22.56,0.11,33.84,0.01c2.43-0.02,3.56,0.41,3.53,3.22 C488.05,464.93,488.08,476.57,488.18,488.21z"></path><path class="st0" d="M76.7,444.62c-0.03-5.18-2.57-7.59-7.77-7.61c-17.1-0.07-34.2-0.06-51.31-0.01c-5.56,0.02-7.89,2.28-7.91,7.87 c-0.08,17.14-0.09,34.28,0,51.41c0.03,5.66,2.23,7.75,7.92,7.8c8.47,0.08,16.94,0.02,25.4,0.02c8.63,0,17.27,0.07,25.9-0.02 c5.28-0.06,7.73-2.33,7.76-7.55C76.8,479.23,76.8,461.92,76.7,444.62z M63.58,487.94c0.02,2.45-0.8,3.13-3.14,3.07 c-5.8-0.14-11.61-0.05-17.42-0.05c-5.64,0-11.29-0.14-16.92,0.06c-2.68,0.1-3.31-0.79-3.28-3.36c0.13-11.3,0.14-22.61,0-33.91 c-0.03-2.75,0.64-3.74,3.57-3.69c11.11,0.17,22.23,0.13,33.34,0.02c2.59-0.03,3.91,0.36,3.86,3.45 C63.43,465,63.47,476.47,63.58,487.94z"></path><path class="st0" d="M325.57,317c0,3.22-1.35,5.1-3.84,6.29c-2.57,1.23-4.89,0.72-6.9-1.09c-2.84-2.56-5.57-5.23-8.31-7.9 c-36.48-35.44-72.95-70.9-109.42-106.35c-0.6-0.58-1.19-1.16-1.77-1.75c-3.44-3.53-3.93-7.19-1.33-10.09 c2.74-3.07,6.73-2.95,10.45,0.64c14.34,13.86,28.62,27.79,42.91,41.7c24.78,24.11,49.56,48.21,74.34,72.33 C323.6,312.62,325.79,314.32,325.57,317z"></path></svg>